<svg xmlns="http://www.w3.org/2000/svg" width="1100" height="680" viewBox="0 0 1100 680"><rect width="1100" height="680" fill="white"/><text x="550" y="30" text-anchor="middle" font-family="Arial" font-size="24">Basic Tunneling: 3 switches / 3 hosts</text><line x1="130" y1="65" x2="280" y2="220" stroke="#66849b" stroke-width="2"/><text x="213.0" y="132.5" font-family="Arial" font-size="15">p1</text><line x1="280" y1="220" x2="760" y2="220" stroke="#66849b" stroke-width="2"/><text x="528.0" y="210.0" font-family="Arial" font-size="15">p2 / p2</text><line x1="280" y1="220" x2="520" y2="400" stroke="#66849b" stroke-width="2"/><text x="408.0" y="300.0" font-family="Arial" font-size="15">p3 / p2</text><line x1="520" y1="400" x2="760" y2="220" stroke="#66849b" stroke-width="2"/><text x="648.0" y="300.0" font-family="Arial" font-size="15">p3 / p3</text><line x1="910" y1="65" x2="760" y2="220" stroke="#66849b" stroke-width="2"/><text x="843.0" y="132.5" font-family="Arial" font-size="15">p1</text><line x1="520" y1="565" x2="520" y2="400" stroke="#66849b" stroke-width="2"/><text x="528.0" y="472.5" font-family="Arial" font-size="15">p1</text><rect x="190" y="188" width="180" height="64" rx="10" fill="#e9f3fc" stroke="#53748c"/><text x="280" y="213" text-anchor="middle" font-family="Arial" font-size="18">s1</text><text x="280" y="238" text-anchor="middle" font-family="Arial" font-size="18">BMv2 / P4</text><rect x="670" y="188" width="180" height="64" rx="10" fill="#e9f3fc" stroke="#53748c"/><text x="760" y="213" text-anchor="middle" font-family="Arial" font-size="18">s2</text><text x="760" y="238" text-anchor="middle" font-family="Arial" font-size="18">BMv2 / P4</text><rect x="430" y="368" width="180" height="64" rx="10" fill="#e9f3fc" stroke="#53748c"/><text x="520" y="393" text-anchor="middle" font-family="Arial" font-size="18">s3</text><text x="520" y="418" text-anchor="middle" font-family="Arial" font-size="18">BMv2 / P4</text><rect x="40" y="33" width="180" height="64" rx="10" fill="#e8f7ef" stroke="#53748c"/><text x="130" y="58" text-anchor="middle" font-family="Arial" font-size="18">h1</text><text x="130" y="83" text-anchor="middle" font-family="Arial" font-size="18">10.0.1.1/24</text><rect x="820" y="33" width="180" height="64" rx="10" fill="#e8f7ef" stroke="#53748c"/><text x="910" y="58" text-anchor="middle" font-family="Arial" font-size="18">h2</text><text x="910" y="83" text-anchor="middle" font-family="Arial" font-size="18">10.0.2.2/24</text><rect x="430" y="533" width="180" height="64" rx="10" fill="#e8f7ef" stroke="#53748c"/><text x="520" y="558" text-anchor="middle" font-family="Arial" font-size="18">h3</text><text x="520" y="583" text-anchor="middle" font-family="Arial" font-size="18">10.0.3.3/24</text><text x="550" y="655" text-anchor="middle" font-family="Arial" font-size="15">Хосты и коммутаторы созданы в Mininet внутри Ubuntu</text></svg>